<?xml version="1.0" encoding="UTF-8"?>
<svg width="449px" height="449px" viewBox="0 0 449 449" version="1.1" xmlns="http://www.w3.org/2000/svg" xmlns:xlink="http://www.w3.org/1999/xlink">
    <!-- Generator: Sketch 53.2 (72643) - https://sketchapp.com -->
    <title>Matrix</title>
    <desc>Created with Sketch.</desc>
    <g id="Matrix" stroke="none" stroke-width="1" fill="none" fill-rule="evenodd">
        <g transform="translate(-446.000000, -481.000000)" fill="#FF6883" id="999">
            <g transform="translate(419.545151, 470.700669)">
                <g id="Group-00x">
                    <polygon id="Path-001" points="249.454849 360.339715 250.332148 433.633749 178.972562 309.757198 199.832309 273.581413"></polygon>
                    <polygon id="Path-002" points="198.461512 270.840016 177.508851 307.246945 107.854337 186.506494 149.823105 186.506494"></polygon>
                    <polygon id="Path-003" transform="translate(86.566950, 131.661691) scale(-1, 1) rotate(240.000000) translate(-86.566950, -131.661691) " points="121.615697 137.998322 121.718297 210.789846 51.4156026 88.7087714 72.3013844 52.5335362"></polygon>
                    <polygon id="Path-004" points="38.5948834 60.8807586 101.333124 96.2994996 198.490942 96.2994996 178.089718 60.865895"></polygon>
                    <polygon id="Path-005" points="181.390727 60.865895 202.03653 96.2994996 299.865961 96.2994996 320.20797 60.865895"></polygon>
                    <polygon id="Path-006" transform="translate(378.164581, 70.025693) scale(1, -1) rotate(300.000000) translate(-378.164581, -70.025693) " points="412.600749 77.2963047 412.892162 148.00791 343.437 27.7080419 363.380004 -7.9565253"></polygon>
                    <polygon id="Path-007" transform="translate(415.579145, 131.138923) rotate(240.000000) translate(-415.579145, -131.138923) " points="449.70985 136.412897 450.138363 210.420276 381.019927 86.6764269 401.122604 51.8575691"></polygon>
                    <polygon id="Path-008" points="303.654232 271.018272 352.43165 186.299331 393.306683 186.299331 324.540585 307.520791"></polygon>
                    <polygon id="Path-009" transform="translate(287.415297, 353.555367) scale(-1, 1) translate(-287.415297, -353.555367) " points="322.375744 360.726453 322.996127 433.633749 251.834467 309.178314 272.608748 273.476985"></polygon>
                </g>
                <g id="Group-0x0" transform="translate(102.457265, 98.691772)">
                    <polygon id="Path-010" points="146.997584 194.236241 146.997584 255.350926 99.0440654 172.657675 117.004583 141.164003"></polygon>
                    <polygon id="Path-020" points="115.293379 138.299014 97.2141984 170.252106 50.7006592 87.8147218 86.1312705 87.8147218"></polygon>
                    <polygon id="Path-030" points="84.6923958 84.888338 48.7479165 84.8730329 0.181849693 1.25210586 54.4567474 33.1810503"></polygon>
                    <polygon id="Path-040" points="2.52578597 -1.77635684e-14 57.6960592 31.7384756 115.886485 31.7384756 97.3443606 0.252105857"></polygon>
                    <polygon id="Path-050" points="119.358895 31.7384756 101.162746 0.252105857 195.2921 0.252105857 177.40266 31.7384756"></polygon>
                    <polygon id="Path-060" points="180.920461 31.7384756 199.453268 0.252105857 294.265877 0.252105857 238.943104 31.7384756"></polygon>
                    <polygon id="Path-070" points="239.331404 36.0643884 296 2.8208246 248.388414 84.607559 211.494061 84.607559"></polygon>
                    <polygon id="Path-080" points="181.716137 138.252106 210.658998 87.607559 246.924777 87.607559 199.280183 169.39855"></polygon>
                    <polygon id="Path-090" transform="translate(173.912727, 198.301516) scale(-1, 1) translate(-173.912727, -198.301516) " points="197.643605 194.330817 197.82787 255.350926 149.997584 171.697963 167.335166 141.252106"></polygon>
                </g>
                <g id="Group-x00" transform="translate(163.454849, 133.299331)">
                    <polygon id="Path-100" points="86 93.3853314 86 153 57.5962421 103.613508 75.2274381 74"></polygon>
                    <polygon id="Path-200" points="56.0387788 100.892996 73.6571539 70.6769327 63.5143787 53 28.3976545 53"></polygon>
                    <polygon id="Path-300" points="50.8438501 32.2925352 0.227438068 3.28077898 27.4871255 50.280779 61.2274381 50.2662191"></polygon>
                    <polygon id="Path-400" points="53.5819686 30 3.22743807 0.304208053 56.6665477 0.280778976 73.6571539 29.9056541"></polygon>
                    <polygon id="Path-500" points="60 0 76.9152473 30 97.0117557 30 114.773478 0"></polygon>
                    <polygon id="Path-600" points="121.376009 29.9056541 173 0.0235364586 118.795409 -7.10542736e-15 101.029582 29.9056541"></polygon>
                    <polygon id="Path-700" points="123.77092 32.1305229 176 2.25619702 148.42419 50 113 49.9854282"></polygon>
                    <polygon id="Path-800" points="119.007526 101.280779 102 70.5659094 111.796649 53.0157097 147 53"></polygon>
                    <polygon id="Path-900" transform="translate(103.051075, 113.500000) scale(-1, 1) translate(-103.051075, -113.500000) " points="117.102149 93.5857702 117.102149 153 89 103.592811 106.323705 74"></polygon>
                </g>
            </g>
        </g>
    </g>
</svg>