<svg width="263" height="162" viewBox="0 0 263 162" fill="none" xmlns="http://www.w3.org/2000/svg">
<g filter="url(#filter0_d_481_3263)">
<path fill-rule="evenodd" clip-rule="evenodd" d="M256.618 5.99951H6.61816V36.162C6.61816 39.498 8.71779 42.4313 11.7039 43.9186C26.6018 51.3391 36.6182 65.1665 36.6182 80.9995C36.6182 96.8325 26.6018 110.66 11.7039 118.08C8.71779 119.568 6.61816 122.501 6.61816 125.837V156H256.618V125.837C256.618 122.501 254.519 119.568 251.532 118.08C236.635 110.66 226.618 96.8325 226.618 80.9995C226.618 65.1665 236.635 51.3391 251.532 43.9186C254.519 42.4313 256.618 39.498 256.618 36.162V5.99951Z" fill="#0B0629"/>
</g>
<path fill-rule="evenodd" clip-rule="evenodd" d="M143.858 42.8397C143.858 49.5997 138.378 55.0797 131.618 55.0797C124.858 55.0797 119.378 49.5997 119.378 42.8397C119.378 36.0797 124.858 30.5997 131.618 30.5997C135.832 30.5997 139.548 32.7289 141.75 35.97L141.699 35.9995L142.929 38.1543C143.528 39.5975 143.858 41.18 143.858 42.8397ZM131.618 22.6797C139.776 22.6797 146.802 27.5253 149.975 34.4953L172.318 73.193L162.939 73.193L150.148 50.7947C147.062 57.973 139.927 62.9997 131.618 62.9997C120.484 62.9997 111.458 53.9737 111.458 42.8397C111.458 31.7056 120.484 22.6797 131.618 22.6797ZM177.698 101.16C177.698 107.919 172.218 113.4 165.458 113.4C158.698 113.4 153.218 107.919 153.218 101.16C153.218 94.3995 158.698 88.9195 165.458 88.9195C172.218 88.9195 177.698 94.3995 177.698 101.16ZM165.458 121.32C176.592 121.319 185.618 112.294 185.618 101.16C185.618 90.0255 176.592 80.9995 165.458 80.9995C154.324 80.9995 145.298 90.0255 145.298 101.16C145.298 105.763 146.841 110.006 149.438 113.4L124.418 113.4L117.938 121.32L165.458 121.32V121.32ZM97.7782 113.4C104.538 113.4 110.018 107.919 110.018 101.16C110.018 94.3995 104.538 88.9195 97.7782 88.9195C91.0182 88.9195 85.5382 94.3995 85.5382 101.16C85.5382 107.919 91.0182 113.4 97.7782 113.4ZM97.7782 121.32C108.912 121.32 117.938 112.294 117.938 101.16C117.938 90.0255 108.912 80.9995 97.7782 80.9995C96.9133 80.9995 96.0612 81.054 95.225 81.1596L108.228 58.8821L103.538 50.7597L79.7783 91.9131L79.8404 91.949C78.42 94.7098 77.6182 97.841 77.6182 101.16C77.6182 112.294 86.6441 121.32 97.7782 121.32Z" fill="#FF7FA9" fill-opacity="0.9"/>
<defs>
<filter id="filter0_d_481_3263" x="0.618164" y="-0.000488281" width="262" height="162" filterUnits="userSpaceOnUse" color-interpolation-filters="sRGB">
<feFlood flood-opacity="0" result="BackgroundImageFix"/>
<feColorMatrix in="SourceAlpha" type="matrix" values="0 0 0 0 0 0 0 0 0 0 0 0 0 0 0 0 0 0 127 0" result="hardAlpha"/>
<feOffset/>
<feGaussianBlur stdDeviation="3"/>
<feComposite in2="hardAlpha" operator="out"/>
<feColorMatrix type="matrix" values="0 0 0 0 0 0 0 0 0 0 0 0 0 0 0 0 0 0 0.4 0"/>
<feBlend mode="normal" in2="BackgroundImageFix" result="effect1_dropShadow_481_3263"/>
<feBlend mode="normal" in="SourceGraphic" in2="effect1_dropShadow_481_3263" result="shape"/>
</filter>
</defs>
</svg>
